<?xml version="1.0" encoding="UTF-8"?> <svg xmlns="http://www.w3.org/2000/svg" viewBox="0 0 595.28 493.54"><path fill="#fff" d="M382.54 261.15a7.65 7.65 0 0 0 1.15-1.36 3.47 3.47 0 0 0 0-4.06 5.37 5.37 0 0 1-.89-2.62c-.1-.71-.16-1.43-.24-2.15a9.33 9.33 0 0 0-2.78-6 5.93 5.93 0 0 1-1.8-3.23 6.86 6.86 0 0 0-3.33-4.59c-.43-.26-.86-.53-1.3-.78a5.36 5.36 0 0 1-2.07-2.3 5.71 5.71 0 0 1-.39-4.1 6.42 6.42 0 0 0-.49-4.73 1.35 1.35 0 0 1 0-1.32 6.78 6.78 0 0 0 .13-5.66c-.16-.4-.34-.79-.52-1.19-1.12-2.46-1.28-2 .89-3.73a11.53 11.53 0 0 0 3.87-5.61c.48-1.51.76-3.07 1.12-4.61a93.58 93.58 0 0 1 3.88-11.8c2.22-5.87 4.42-11.74 5.23-18a30 30 0 0 0 .51-5.27c-.16-3.26-1.92-5.58-4.81-6.28a6.22 6.22 0 0 0-1.28-.21 2.15 2.15 0 0 1-1.62-.93 42.54 42.54 0 0 1-4.42-6.53 43.61 43.61 0 0 1-2.58-5.7c-.16-.42-.32-.74-.88-.79-2.61-.26-5.23-.56-7.84-.88a44.76 44.76 0 0 1-4.61-.62c-.93-.22-1-.27-1-1.24.05-1.84.1-3.68.21-5.51a4.4 4.4 0 0 0-2.66-4.62 18.29 18.29 0 0 1-5.93-4.81 3.09 3.09 0 0 1-.93-2.78A3.5 3.5 0 0 0 344 123c-5.37-.3-10.73-.57-16.1-.86l-6.91-.38c-.27 0-.57.06-.75-.28-.68-1.21-1.54-2.35-1.2-3.88v-.32a.75.75 0 0 0-.65-.93c-.87-.22-1.73-.51-2.6-.7a25.75 25.75 0 0 0-8.4-.29c-.46.06-.7 0-.81-.53a4.18 4.18 0 0 0-2.08-2.77 7.3 7.3 0 0 0-2.63-1 9.07 9.07 0 0 0-1.93-.22c-.92.07-1.6-.54-2.43-.68a112.47 112.47 0 0 0-13.2-1.62 41.75 41.75 0 0 0-7.66.27c-1.72.21-3.39.71-5.1.94-2.61.34-5.23.55-7.84.87-3.54.43-7.08.9-10.62 1.37-.93.13-.93.16-.76 1.1.9 4.93 1.79 9.85 2.71 14.78a1.28 1.28 0 0 1-.52 1.38 402.63 402.63 0 0 0-5.46 4.61 3.07 3.07 0 0 1-1.24.61c-3.89 1.05-7.78 2.14-11.68 3.17a1.55 1.55 0 0 0-1.2 1.16q-7.16 21.42-14.35 42.83a6.71 6.71 0 0 0-.36 2.22v40c0 1.72 0 1.79 1.78 1.81a22.56 22.56 0 0 1 9.06 2.22c2.37 1.06 4.58 2.44 6.91 3.58a6.54 6.54 0 0 1 3.9 6.1 1.62 1.62 0 0 0 0 .22 24.94 24.94 0 0 0 1.07 5.61 4.43 4.43 0 0 0 4.15 3.09h5.84c.44 0 .64.12.68.58a17.87 17.87 0 0 0 1.61 5.58 4.52 4.52 0 0 1 .33 2.33 24.9 24.9 0 0 1-1 5c-.92 3.11-2.17 6.11-3.21 9.18a29.44 29.44 0 0 0-1.93 10.57 2.8 2.8 0 0 1-1.19 2.72 4.89 4.89 0 0 0-2 4.33c.11 5.88.14 11.75.17 17.63.05 10 .08 19.91.18 29.87.12 12.37.15 24.74.23 37.11 0 1.73.05 3.46 0 5.19 0 .59.21.77.75.7h74c1.1 0 1 .15 1-1.05V376l-.24-25.86v-.86c0-.29.12-.55.5-.53s.5 0 .76 0c4.47 0 8.94-.06 13.42 0a4.39 4.39 0 0 0 3.35-1.4 28.22 28.22 0 0 0 2.65-3.14c2.79-3.68 5.35-7.52 7.89-11.38a1485.65 1485.65 0 0 0 27.48-43.91 40 40 0 0 1 5.3-7.48 10.17 10.17 0 0 0 1-1.38 10.27 10.27 0 0 0 1.71-5.28c.07-1.37.07-2.74 0-4.11-.15-3.61-1.06-6.91-3.89-9.41.08.04.08-.01.05-.11z"></path><path fill="#fff" d="M125.78 246.77A171.86 171.86 0 1 0 297.64 74.91a171.85 171.85 0 0 0-171.86 171.86zM297.64 83.5a163 163 0 1 1-163 163 163 163 0 0 1 163-163z"></path><path fill="#fff" d="M54.42 246.77C54.42 381.1 163.31 490 297.64 490s243.21-108.9 243.21-243.23S432 3.56 297.64 3.56 54.42 112.45 54.42 246.77zm243.22-233c128.45 0 232.59 104.13 232.59 232.59S426.09 479 297.64 479 65.05 374.84 65.05 246.39 169.18 13.8 297.64 13.8z"></path><path fill="#fff" d="M106.79 230.61a13.72 13.72 0 0 1-5.68 4.55 14.11 14.11 0 0 1-7.37 1.08 14.28 14.28 0 0 1-6.95-2.67 13.86 13.86 0 0 1-4.53-5.69 14.21 14.21 0 0 1-1.07-7.39 13.15 13.15 0 0 1 4.07-8.42 1.78 1.78 0 0 1 2.61.24l.87 1.13a1.82 1.82 0 0 1-.23 2.44A8.09 8.09 0 0 0 86 221a9.43 9.43 0 0 0 .64 4.74 8.35 8.35 0 0 0 2.9 3.63 10.61 10.61 0 0 0 9.75 1.09 8.46 8.46 0 0 0 3.64-2.9 9.4 9.4 0 0 0 1.66-4.49 8.69 8.69 0 0 0-2.08-6.8 1 1 0 0 1 .14-1.43l2.27-1.91a1 1 0 0 1 1.43.1 13.42 13.42 0 0 1 2.49 4.41 14.35 14.35 0 0 1 .59 6.21 14.19 14.19 0 0 1-2.64 6.96zM81.17 186.27l1.57-5.6 4.06 4.69-1.08 3.85zm6.34 4.43l1.59-5.7 27.1-2.32a1.31 1.31 0 0 1 1.37 1.66l-.77 2.74a1.32 1.32 0 0 1-1.18 1l-6 .38-2.81 10 4.88 3.42a1.32 1.32 0 0 1 .51 1.43l-.77 2.74a1.31 1.31 0 0 1-2 .7zm17.17-1.93l-7.24.45-3.41.07-.09.29 2.89 1.84 5.93 4.19zM95.76 164.69l2.88-6 20.36 1.86.13-.27-14.08-14.83 2.9-6 24.51 11.85-2.21 4.58-12.09-5.84-3.94-2.24-.13.27 13.14 14-1.73 3.59-19.19-1.54-.13.27 4.2 1.69 12.1 5.92-2.2 4.55zM119.7 121.69l3.45-4.78 28.06 7.65-3.32 4.59-6.61-2-6.1 8.44 3.94 5.66-3.32 4.59zm16.78 4.1l-6.95-2.07-3.23-1.11-.18.25 2.07 2.71 4.13 6zM136.21 100.72l6.94-7.09a9.94 9.94 0 0 1 4.1-2.61 7.92 7.92 0 0 1 4.44-.16 8.52 8.52 0 0 1 4 2.29 7.12 7.12 0 0 1 2.17 4.44 9.35 9.35 0 0 1-.81 5l.17.21 12.58 2.1.21.22-4.12 4.21-12.23-2.14-1.68 1.71 7.31 7.16-3.59 3.67zm15.69 1.53a3.93 3.93 0 0 0 1.24-2.78 3.62 3.62 0 0 0-1.14-2.68 3.66 3.66 0 0 0-5.4.14l-3.38 3.45 5.37 5.27zM164.61 74.58l4.71-3.58 24.55 15.6-4.52 3.4-5.74-3.82-8.32 6.27 2.09 6.57-4.52 3.41zm14.83 8.87l-6-4-2.76-2-.24.19 1.17 3.2 2.18 6.93zM199.07 52.45l8.41-3.75a15.34 15.34 0 0 1 7.52-1.46 12 12 0 0 1 6.39 2.4 15.59 15.59 0 0 1 5.79 13 11.85 11.85 0 0 1-2.54 6.36 15.39 15.39 0 0 1-6.07 4.59l-8.41 3.75zm17.3 16.77q4-1.8 5.2-4.88a8.71 8.71 0 0 0-.49-6.8 8.73 8.73 0 0 0-4.73-4.91c-2-.79-4.41-.59-7.1.61l-3.51 1.56 7.13 16zM231.46 39.31l16.63-4.62 1.3 4.69-11.69 3.24 1.69 6.09 10.52-2.92 1.3 4.69-10.52 2.92 1.69 6.08 11.69-3.24 1.3 4.69-16.64 4.61zM274.16 30l6.61-.29 8.07 18.79h.3l6.37-19.43 6.64-.3L303.37 56l-5.09.23-.6-13.41.1-4.54h-.3l-6.11 18.24-4 .18-7.76-17.62h-.3l.51 4.51.6 13.41-5.06.22zM323.4 30.65l5.84.77 6.57 28.34-5.62-.76-1.41-6.74-10.33-1.36-3.11 6.1-5.62-.74zm4.34 16.72l-1.47-7.1-.55-3.37h-.3L324 40l-3.32 6.47zM350 35.24l5.69 1.76 5.19 20.65.3.09 1.22-5.12 3.77-12.44 4.88 1.47-7.89 26.06-5.16-1.6-5.48-21.8-.29-.09-1.23 5.11-4.06 13.43-4.84-1.46zM383.49 46.53l8.26 4a15.28 15.28 0 0 1 5.9 4.81 12 12 0 0 1 2.26 6.44 15.64 15.64 0 0 1-6.27 12.77 11.92 11.92 0 0 1-6.48 2.15 15.31 15.31 0 0 1-7.41-1.7l-8.26-4zm-1.8 24q4 2 7.08.87a8.68 8.68 0 0 0 4.9-4.73 8.67 8.67 0 0 0 .74-6.77q-1.05-3.12-5-5.07L386 53.16l-7.72 15.7zM419.77 66.71l4.83 3.38-7.23 28.18-4.64-3.27 1.85-6.64-8.53-6-5.6 4-4.64-3.25zm-3.85 16.85l2-7 1.06-3.25-.25-.17-2.73 2.13-5.92 4.21zM439.58 88.39L434 83.24l3.29-3.58 15 13.76L449 97l-5.6-5.15-15.13 16.47-3.78-3.47zM462.83 105.21l3.77 4.53L452.24 135l-3.63-4.35 3.53-5.92-6.67-8-6.47 2.44-3.63-4.35zm-8.13 15.25l3.72-6.22 1.88-2.86-.2-.23-3.1 1.33-6.86 2.52zM479.08 126.46l5.14 8.49a10 10 0 0 1 1.51 4.63 8 8 0 0 1-1 4.33 8.57 8.57 0 0 1-3.2 3.27 7.16 7.16 0 0 1-4.84 1 9.47 9.47 0 0 1-4.68-2l-.25.1-5.17 11.66-.26.16-3.05-5 5.12-11.32-1.24-2-8.76 5.29-2.65-4.39zm-5.39 14.82a3.91 3.91 0 0 0 2.39 1.89 3.61 3.61 0 0 0 2.88-.45 3.67 3.67 0 0 0 1.21-5.27l-2.5-4.14-6.44 3.9zM493.79 152.77l2.16 4.65-24.7 11.45-2.16-4.66zM477.94 181.8a13.71 13.71 0 0 1 3.38-6.43 14.76 14.76 0 0 1 13.68-4.32 13.59 13.59 0 0 1 6.45 3.32 14.91 14.91 0 0 1 4.36 13.82 13.71 13.71 0 0 1-3.38 6.43 14.76 14.76 0 0 1-13.7 4.32 13.57 13.57 0 0 1-6.46-3.32 14.91 14.91 0 0 1-4.36-13.82zm7.54 10a8.42 8.42 0 0 0 4.14 2.14 9.71 9.71 0 0 0 5-.32 9.87 9.87 0 0 0 4.28-2.6 8.54 8.54 0 0 0 2.16-4.14 9.55 9.55 0 0 0-2.76-8.76 8.64 8.64 0 0 0-4.14-2.12 10.46 10.46 0 0 0-9.28 2.93 8.46 8.46 0 0 0-2.17 4.12 9.5 9.5 0 0 0 2.76 8.75zM486.12 211.92a10.62 10.62 0 0 1 5.07-4.64l2.59 4.49a7.14 7.14 0 0 0-3.13 2.43 4.79 4.79 0 0 0-.77 3.58 5 5 0 0 0 1.28 2.77 2.77 2.77 0 0 0 2.53.85 3.1 3.1 0 0 0 2.29-1.52 14.67 14.67 0 0 0 1.44-4.39l.35-1.74a11.58 11.58 0 0 1 2.1-4.85 6.45 6.45 0 0 1 4.41-2.55 7.1 7.1 0 0 1 4 .52 7.61 7.61 0 0 1 3.19 2.67 10.07 10.07 0 0 1 1.67 4.36 9 9 0 0 1-.85 6 8.88 8.88 0 0 1-3.57 3.5l-2.55-4.19a4.53 4.53 0 0 0 1.87-1.76 4.12 4.12 0 0 0 .45-2.78 4.63 4.63 0 0 0-1.18-2.61 2.38 2.38 0 0 0-2.17-.77 2.59 2.59 0 0 0-1.9 1.32 11.18 11.18 0 0 0-1.14 3.59l-.31 1.78a13.22 13.22 0 0 1-2.37 5.84 8.18 8.18 0 0 1-9.55 1.95 8.41 8.41 0 0 1-3.25-3.07 11.38 11.38 0 0 1-1.56-4.25 10.38 10.38 0 0 1 1.06-6.53zM96.18 307l10.75-13.09 1.9 5.72-6.72 7.88.1.28 10 2.09 1.93 5.79-16.4-3.88L86 315.76 84.37 311zM101.9 349a14 14 0 0 1 21-12.3 14.27 14.27 0 0 1 5.15 5.2 14.65 14.65 0 0 1 1.94 5.51 12.77 12.77 0 0 1-.43 5.44l-4.7-1.28a9 9 0 0 0 .34-3.65 9.52 9.52 0 0 0-1.31-3.64 9.16 9.16 0 0 0-3.27-3.33 8.49 8.49 0 0 0-4.46-1.18 10.05 10.05 0 0 0-8.29 4.88 8.57 8.57 0 0 0-1.14 4.5 9.28 9.28 0 0 0 1.32 4.5 8.71 8.71 0 0 0 5 4.18 6.38 6.38 0 0 0 2.15.26 8.74 8.74 0 0 0 2.38-.44l-4.25-7.27 3.71-2.17 6.64 11.33a10.11 10.11 0 0 1-1.9 1.42 15 15 0 0 1-4.67 1.8 11.27 11.27 0 0 1-4.7-.09 11.93 11.93 0 0 1-4.76-2.25 15.17 15.17 0 0 1-3.76-4.38 14.3 14.3 0 0 1-1.99-7.04zM138.58 359.2l10.61 13.26-3.74 3-7.45-9.33-4.86 3.87 6.71 8.39-3.74 3-6.7-8.39-4.85 3.88 7.44 9.32-3.74 3-10.61-13.27zM138 397.57a10.43 10.43 0 0 1 1.21-6.65l4.71 2a7 7 0 0 0-1 3.77 4.71 4.71 0 0 0 1.52 3.26 4.84 4.84 0 0 0 2.65 1.41 2.67 2.67 0 0 0 2.49-.84 3 3 0 0 0 .9-2.55 14.63 14.63 0 0 0-1.49-4.29l-.76-1.58A11.37 11.37 0 0 1 147 387a6.34 6.34 0 0 1 1.93-4.62 7 7 0 0 1 3.45-2 7.45 7.45 0 0 1 4.09.2 9.73 9.73 0 0 1 3.9 2.42 8.8 8.8 0 0 1 2.92 5.21 9 9 0 0 1-.72 4.87l-4.5-1.77a4.43 4.43 0 0 0 .42-2.49 4 4 0 0 0-1.3-2.45 4.57 4.57 0 0 0-2.48-1.34 2.37 2.37 0 0 0-2.16.69 2.56 2.56 0 0 0-.7 2.17 10.78 10.78 0 0 0 1.25 3.48l.82 1.58a13.06 13.06 0 0 1 1.61 6 8.06 8.06 0 0 1-6.32 7.21 8.32 8.32 0 0 1-4.38-.47 11.21 11.21 0 0 1-3.74-2.4 10.21 10.21 0 0 1-3.09-5.72zM173.4 401.64l-6-4.54 2.9-3.81 15.92 12.13-2.9 3.81-6-4.53-13.33 17.5-4-3.06zM182.87 433.41a13.44 13.44 0 0 1-1.92-6.88 14.54 14.54 0 0 1 6.91-12.35 13.41 13.41 0 0 1 6.86-2 14.62 14.62 0 0 1 12.44 6.95 13.47 13.47 0 0 1 1.92 6.88 14.56 14.56 0 0 1-6.9 12.35 13.55 13.55 0 0 1-6.87 2 14.69 14.69 0 0 1-12.44-7zm12.13 2.11a8.24 8.24 0 0 0 4.41-1.26 10.3 10.3 0 0 0 4.68-8.36 8.33 8.33 0 0 0-1.24-4.42 9 9 0 0 0-3.38-3.22 8.92 8.92 0 0 0-4.5-1.19 8.36 8.36 0 0 0-4.4 1.27 10.32 10.32 0 0 0-4.67 8.36 8.37 8.37 0 0 0 1.22 4.41 8.87 8.87 0 0 0 3.36 3.21 9 9 0 0 0 4.52 1.2zM220.24 424l9.14 3.43a9.72 9.72 0 0 1 4 2.65 7.71 7.71 0 0 1 1.9 3.93 8.47 8.47 0 0 1-.47 4.47 7.09 7.09 0 0 1-3.14 3.72 9.2 9.2 0 0 1-4.85 1.28l-.13.23 3.12 12.16-.1.28-5.43-2-3-11.85-2.2-.83-3.53 9.43-4.73-1.77zm4.86 14.73a3.89 3.89 0 0 0 3 0 3.55 3.55 0 0 0 2-2.1 3.67 3.67 0 0 0-.05-2.82 3.62 3.62 0 0 0-2.23-2l-4.45-1.67-2.59 6.94zM244.86 432.59l16.55 3.85-1.09 4.67-11.62-2.71-1.41 6 10.45 2.44-1.08 4.67-10.46-2.44-1.41 6.05 11.62 2.71-1.09 4.66-16.54-3.86zM268.13 463.1a10.35 10.35 0 0 1-3.17-6l4.92-1.36a7 7 0 0 0 1.54 3.58 4.72 4.72 0 0 0 3.22 1.62 4.82 4.82 0 0 0 2.95-.54 2.72 2.72 0 0 0 1.44-2.2 3.06 3.06 0 0 0-.89-2.55 14.66 14.66 0 0 0-3.82-2.46l-1.58-.76a11.48 11.48 0 0 1-4.1-3.2 6.34 6.34 0 0 1-1.34-4.82 7 7 0 0 1 1.48-3.68 7.47 7.47 0 0 1 3.33-2.38 10 10 0 0 1 4.57-.52 8.46 8.46 0 0 1 8 6.55L280 445.8a4.43 4.43 0 0 0-1.21-2.22 4 4 0 0 0-2.54-1.11 4.56 4.56 0 0 0-2.77.48 2.36 2.36 0 0 0-1.27 1.88A2.56 2.56 0 0 0 273 447a11 11 0 0 0 3.14 2l1.62.73a13.06 13.06 0 0 1 5 3.7 8 8 0 0 1-.5 9.58 8.27 8.27 0 0 1-3.72 2.34 10.94 10.94 0 0 1-4.43.44 10.19 10.19 0 0 1-5.98-2.69zM304.88 439.71l9-.81a15.08 15.08 0 0 1 7.41 1 11.77 11.77 0 0 1 5.2 4.27 14.27 14.27 0 0 1 2.3 6.82 14.06 14.06 0 0 1-1.05 7.11 11.77 11.77 0 0 1-4.35 5.13 15.1 15.1 0 0 1-7.11 2.33l-9 .81zm10.76 21.12q4.33-.39 6.39-2.89a9.83 9.83 0 0 0-1.13-12.55q-2.47-2.08-6.8-1.7l-3.76.34 1.54 17.14zM334.52 436.28l16.55-3.83 1.08 4.66-11.63 2.7 1.4 6.05 10.46-2.43 1.09 4.67-10.47 2.42 1.41 6.05 11.59-2.69 1.08 4.66-16.54 3.84zM384.38 447.63a13.61 13.61 0 0 1-6.7-2.51 14.49 14.49 0 0 1-5.84-12.92 13.5 13.5 0 0 1 2.54-6.69 14 14 0 0 1 5.71-4.62 13 13 0 0 1 10.94-.14l-1.82 4.6a8.11 8.11 0 0 0-7.11-.11 9.16 9.16 0 0 0-3.69 2.92 8.23 8.23 0 0 0-1.62 4.28 10.5 10.5 0 0 0 4 8.8 8.16 8.16 0 0 0 4.28 1.61 9.2 9.2 0 0 0 4.63-.84 8.77 8.77 0 0 0 5-6.11l4.67 1.62a13.37 13.37 0 0 1-2.77 5.26 14.24 14.24 0 0 1-5 3.61 14 14 0 0 1-7.22 1.24zM414.07 432.39a13.38 13.38 0 0 1-7-1.46 14.57 14.57 0 0 1-7.78-11.81 13.45 13.45 0 0 1 1.41-7 14.64 14.64 0 0 1 11.91-7.85 13.46 13.46 0 0 1 7 1.47 14.53 14.53 0 0 1 7.78 11.81 13.47 13.47 0 0 1-1.41 7 14.61 14.61 0 0 1-11.91 7.84zm-12.39-31l4.78-3.15v6.1l-3.28 2.16zm19.87 21.18a8.3 8.3 0 0 0 .91-4.5 10.31 10.31 0 0 0-5.27-8 8.38 8.38 0 0 0-4.49-.93 9 9 0 0 0-4.42 1.52 8.92 8.92 0 0 0-3.13 3.45 8.42 8.42 0 0 0-.89 4.49 10.32 10.32 0 0 0 5.27 8 8.38 8.38 0 0 0 4.48.95 9.36 9.36 0 0 0 7.54-5zM422.93 394.89l7.26-6.54a9.79 9.79 0 0 1 4.19-2.3 7.78 7.78 0 0 1 4.36.12 8.37 8.37 0 0 1 3.75 2.49 7.1 7.1 0 0 1 1.86 4.5 9.33 9.33 0 0 1-1.11 4.89l.15.22 12.22 2.85.2.22-4.31 3.88-11.88-2.86-1.75 1.58 6.73 7.48-3.75 3.38zm15.31 2.47a3.83 3.83 0 0 0 1.39-2.65 3.54 3.54 0 0 0-1-2.7 3.7 3.7 0 0 0-2.52-1.26 3.64 3.64 0 0 0-2.8 1.06l-3.5 3.19 5 5.51zM441.93 377.18l5.81-6.93a15.08 15.08 0 0 1 6-4.51 11.81 11.81 0 0 1 6.69-.65 15.42 15.42 0 0 1 10.72 9 11.76 11.76 0 0 1 .54 6.7 15 15 0 0 1-3.4 6.67l-5.81 6.94zm22.53 7.37q2.79-3.33 2.49-6.55a9.86 9.86 0 0 0-9.66-8.1c-2.16.18-4.16 1.38-6 3.59l-2.43 2.9L462 387.45zM485.38 362.44a13.41 13.41 0 0 1-6.93 1.72 14.6 14.6 0 0 1-12.15-7.24 13.45 13.45 0 0 1-1.77-6.92 14.67 14.67 0 0 1 7.3-12.25 13.51 13.51 0 0 1 6.93-1.72 14.58 14.58 0 0 1 12.15 7.25 13.39 13.39 0 0 1 1.77 6.91 14.67 14.67 0 0 1-7.3 12.25zm2.45-12.11a8.44 8.44 0 0 0-1.13-4.45 9.63 9.63 0 0 0-3.51-3.46 9.75 9.75 0 0 0-4.72-1.45 8.29 8.29 0 0 0-4.45 1.12 9.34 9.34 0 0 0-4.63 7.76 8.49 8.49 0 0 0 1.14 4.43 10.33 10.33 0 0 0 8.23 4.9 8.41 8.41 0 0 0 4.44-1.09 9 9 0 0 0 3.31-3.28 9.1 9.1 0 0 0 1.32-4.48zM477 324.86l3.94-9.71a9.29 9.29 0 0 1 2.42-3.48 7.59 7.59 0 0 1 3.47-1.8 6.21 6.21 0 0 1 3.67.32 6.09 6.09 0 0 1 2.87 2.24 6.54 6.54 0 0 1 1.12 3.26l.28.11a7 7 0 0 1 3.45-2.19 6.27 6.27 0 0 1 4.09.32 6.76 6.76 0 0 1 3.18 2.57 7.73 7.73 0 0 1 1.23 3.93 10.56 10.56 0 0 1-.82 4.45l-4.08 10.06zm13.92-5.25a3.74 3.74 0 0 0 .14-2.79 3.17 3.17 0 0 0-4.21-1.75 3.46 3.46 0 0 0-1.8 2l-2 4.82 5.93 2.41zm10.64 3.71a4.05 4.05 0 0 0 .2-3 3.26 3.26 0 0 0-1.92-1.89 3.3 3.3 0 0 0-2.72 0 4.25 4.25 0 0 0-2 2.41l-2.06 5.06 6.41 2.6zM488.22 293.22l1.41-5.63 28.43-3.27-1.36 5.41-6.75.63-2.48 9.94 5.66 3.73-1.35 5.41zm16.83-2.39l-7.1.65-3.36.17-.07.29 2.88 1.72 6 4z"></path></svg> 